<svg width="180" height="260" viewBox="0 0 180 260" fill="none" xmlns="http://www.w3.org/2000/svg">
  <rect x="6" y="6" width="168" height="248" rx="18" fill="#0F4C81" stroke="#D3EAFE" stroke-width="6"/>
  <rect x="18" y="18" width="144" height="224" rx="14" fill="url(#ocean)" stroke="#EFF6FF" stroke-width="3"/>
  <path d="M26 64C46 50 70 50 90 64C110 78 134 78 154 64" stroke="#E0F2FE" stroke-width="6" stroke-linecap="round"/>
  <path d="M26 112C46 98 70 98 90 112C110 126 134 126 154 112" stroke="#BAE6FD" stroke-width="6" stroke-linecap="round"/>
  <path d="M26 160C46 146 70 146 90 160C110 174 134 174 154 160" stroke="#7DD3FC" stroke-width="6" stroke-linecap="round"/>
  <path d="M26 208C46 194 70 194 90 208C110 222 134 222 154 208" stroke="#38BDF8" stroke-width="6" stroke-linecap="round"/>
  <circle cx="90" cy="130" r="18" fill="#F0F9FF"/>
  <circle cx="90" cy="130" r="8" fill="#0F4C81"/>
  <defs>
    <linearGradient id="ocean" x1="18" y1="18" x2="162" y2="242" gradientUnits="userSpaceOnUse">
      <stop stop-color="#0F4C81"/>
      <stop offset="1" stop-color="#0A3356"/>
    </linearGradient>
  </defs>
</svg>

